<svg width="16" height="15" viewBox="0 0 16 15" fill="none" xmlns="http://www.w3.org/2000/svg">
<path d="M14.8251 10.7167L13.8834 9.15001C13.6751 8.80834 13.4918 8.15001 13.4918 7.75001V6.19168C13.4918 3.16668 11.0334 0.708344 8.01676 0.708344C4.99176 0.716677 2.53342 3.16668 2.53342 6.19168V7.74168C2.53342 8.14168 2.35009 8.80001 2.15009 9.14168L1.20842 10.7083C0.850088 11.3167 0.766754 12.0083 0.991754 12.6083C1.21675 13.2167 1.72509 13.7 2.39175 13.9167C3.29175 14.2167 4.20009 14.4333 5.12509 14.5917C5.21675 14.6083 5.30842 14.6167 5.40009 14.6333C5.51675 14.65 5.64175 14.6667 5.76675 14.6833C5.98342 14.7167 6.20009 14.7417 6.42509 14.7583C6.95009 14.8083 7.48342 14.8333 8.01676 14.8333C8.54176 14.8333 9.06676 14.8083 9.58342 14.7583C9.77509 14.7417 9.96676 14.725 10.1501 14.7C10.3001 14.6833 10.4501 14.6667 10.6001 14.6417C10.6918 14.6333 10.7834 14.6167 10.8751 14.6C11.8084 14.45 12.7334 14.2167 13.6334 13.9167C14.2751 13.7 14.7668 13.2167 15.0001 12.6C15.2334 11.975 15.1668 11.2917 14.8251 10.7167ZM8.62509 7.33334C8.62509 7.68334 8.34176 7.96668 7.99176 7.96668C7.64176 7.96668 7.35842 7.68334 7.35842 7.33334V4.75001C7.35842 4.40001 7.64176 4.11668 7.99176 4.11668C8.34176 4.11668 8.62509 4.40001 8.62509 4.75001V7.33334Z" fill="#77797C"/>
</svg>
