<svg width="18" height="16" viewBox="0 0 18 16" fill="none" xmlns="http://www.w3.org/2000/svg">
<path d="M15.75 5.68333C14.2416 5.68333 13.625 4.61666 14.375 3.30833C14.8083 2.55 14.55 1.58333 13.7916 1.15L12.35 0.324998C11.6916 -0.0666687 10.8416 0.166665 10.45 0.824998L10.3583 0.983331C9.60829 2.29166 8.37496 2.29166 7.61663 0.983331L7.52496 0.824998C7.14996 0.166665 6.29996 -0.0666687 5.64163 0.324998L4.19996 1.15C3.44163 1.58333 3.18329 2.55833 3.61663 3.31666C4.37496 4.61666 3.75829 5.68333 2.24996 5.68333C1.38329 5.68333 0.666626 6.39166 0.666626 7.26666V8.73333C0.666626 9.6 1.37496 10.3167 2.24996 10.3167C3.75829 10.3167 4.37496 11.3833 3.61663 12.6917C3.18329 13.45 3.44163 14.4167 4.19996 14.85L5.64163 15.675C6.29996 16.0667 7.14996 15.8333 7.54163 15.175L7.63329 15.0167C8.38329 13.7083 9.61663 13.7083 10.375 15.0167L10.4666 15.175C10.8583 15.8333 11.7083 16.0667 12.3666 15.675L13.8083 14.85C14.5666 14.4167 14.825 13.4417 14.3916 12.6917C13.6333 11.3833 14.25 10.3167 15.7583 10.3167C16.625 10.3167 17.3416 9.60833 17.3416 8.73333V7.26666C17.3333 6.4 16.625 5.68333 15.75 5.68333ZM8.99996 10.7083C7.50829 10.7083 6.29163 9.49166 6.29163 8C6.29163 6.50833 7.50829 5.29166 8.99996 5.29166C10.4916 5.29166 11.7083 6.50833 11.7083 8C11.7083 9.49166 10.4916 10.7083 8.99996 10.7083Z" fill="#77797C"/>
</svg>
